<svg width="36" height="36" viewBox="0 0 36 36" fill="none" xmlns="http://www.w3.org/2000/svg">
<path d="M6 14C6 9.58172 9.58172 6 14 6H22C26.4183 6 30 9.58172 30 14V22C30 26.4183 26.4183 30 22 30H14C9.58172 30 6 26.4183 6 22V14Z" fill="#E8E8EE"/>
<path d="M12.6667 24C12.4778 24 12.3194 23.9361 12.1917 23.8083C12.0639 23.6806 12 23.5222 12 23.3333V21.7167C12 21.5389 12.0333 21.3694 12.1 21.2083C12.1667 21.0472 12.2611 20.9056 12.3833 20.7833L20.8 12.3833C20.9333 12.2611 21.0806 12.1667 21.2417 12.1C21.4028 12.0333 21.5722 12 21.75 12C21.9278 12 22.1 12.0333 22.2667 12.1C22.4333 12.1667 22.5778 12.2667 22.7 12.4L23.6167 13.3333C23.75 13.4556 23.8472 13.6 23.9083 13.7667C23.9694 13.9333 24 14.1 24 14.2667C24 14.4444 23.9694 14.6139 23.9083 14.775C23.8472 14.9361 23.75 15.0833 23.6167 15.2167L15.2167 23.6167C15.0944 23.7389 14.9528 23.8333 14.7917 23.9C14.6306 23.9667 14.4611 24 14.2833 24H12.6667ZM21.7333 15.2L22.6667 14.2667L21.7333 13.3333L20.8 14.2667L21.7333 15.2Z" fill="#3E404C"/>
</svg>
