<svg width="36" height="36" viewBox="0 0 36 36" fill="none" xmlns="http://www.w3.org/2000/svg">
<path d="M6 14C6 9.58172 9.58172 6 14 6H22C26.4183 6 30 9.58172 30 14V22C30 26.4183 26.4183 30 22 30H14C9.58172 30 6 26.4183 6 22V14Z" fill="#E8E8EE"/>
<path d="M17.2167 24.6667C16.9167 24.6667 16.6583 24.5667 16.4417 24.3667C16.225 24.1667 16.0944 23.9222 16.05 23.6333L15.9 22.5333C15.7555 22.4778 15.6194 22.4111 15.4917 22.3333C15.3639 22.2556 15.2389 22.1722 15.1167 22.0833L14.0833 22.5167C13.8055 22.6389 13.5278 22.65 13.25 22.55C12.9722 22.45 12.7555 22.2722 12.6 22.0167L11.8167 20.65C11.6611 20.3945 11.6167 20.1222 11.6833 19.8333C11.75 19.5445 11.9 19.3056 12.1333 19.1167L13.0167 18.45C13.0055 18.3722 13 18.2972 13 18.225V17.775C13 17.7028 13.0055 17.6278 13.0167 17.55L12.1333 16.8833C11.9 16.6945 11.75 16.4556 11.6833 16.1667C11.6167 15.8778 11.6611 15.6056 11.8167 15.35L12.6 13.9833C12.7555 13.7278 12.9722 13.55 13.25 13.45C13.5278 13.35 13.8055 13.3611 14.0833 13.4833L15.1167 13.9167C15.2389 13.8278 15.3667 13.7445 15.5 13.6667C15.6333 13.5889 15.7667 13.5222 15.9 13.4667L16.05 12.3667C16.0944 12.0778 16.225 11.8333 16.4417 11.6333C16.6583 11.4333 16.9167 11.3333 17.2167 11.3333H18.7833C19.0833 11.3333 19.3417 11.4333 19.5583 11.6333C19.775 11.8333 19.9055 12.0778 19.95 12.3667L20.1 13.4667C20.2444 13.5222 20.3805 13.5889 20.5083 13.6667C20.6361 13.7445 20.7611 13.8278 20.8833 13.9167L21.9167 13.4833C22.1944 13.3611 22.4722 13.35 22.75 13.45C23.0278 13.55 23.2444 13.7278 23.4 13.9833L24.1833 15.35C24.3389 15.6056 24.3833 15.8778 24.3167 16.1667C24.25 16.4556 24.1 16.6945 23.8667 16.8833L22.9833 17.55C22.9944 17.6278 23 17.7028 23 17.775V18.225C23 18.2972 22.9889 18.3722 22.9667 18.45L23.85 19.1167C24.0833 19.3056 24.2333 19.5445 24.3 19.8333C24.3667 20.1222 24.3222 20.3945 24.1667 20.65L23.3667 22.0167C23.2111 22.2722 22.9944 22.45 22.7167 22.55C22.4389 22.65 22.1611 22.6389 21.8833 22.5167L20.8833 22.0833C20.7611 22.1722 20.6333 22.2556 20.5 22.3333C20.3667 22.4111 20.2333 22.4778 20.1 22.5333L19.95 23.6333C19.9055 23.9222 19.775 24.1667 19.5583 24.3667C19.3417 24.5667 19.0833 24.6667 18.7833 24.6667H17.2167ZM18.0333 20.3333C18.6778 20.3333 19.2278 20.1056 19.6833 19.65C20.1389 19.1945 20.3667 18.6445 20.3667 18C20.3667 17.3556 20.1389 16.8056 19.6833 16.35C19.2278 15.8945 18.6778 15.6667 18.0333 15.6667C17.3778 15.6667 16.825 15.8945 16.375 16.35C15.925 16.8056 15.7 17.3556 15.7 18C15.7 18.6445 15.925 19.1945 16.375 19.65C16.825 20.1056 17.3778 20.3333 18.0333 20.3333Z" fill="#3E404C"/>
</svg>
